<?xml version="1.0" encoding="UTF-8" standalone="no"?>
<!-- Created with Inkscape (http://www.inkscape.org/) -->

<svg
   xmlns:dc="http://purl.org/dc/elements/1.1/"
   xmlns:cc="http://creativecommons.org/ns#"
   xmlns:rdf="http://www.w3.org/1999/02/22-rdf-syntax-ns#"
   xmlns:svg="http://www.w3.org/2000/svg"
   xmlns="http://www.w3.org/2000/svg"
   xmlns:sodipodi="http://sodipodi.sourceforge.net/DTD/sodipodi-0.dtd"
   xmlns:inkscape="http://www.inkscape.org/namespaces/inkscape"
   width="210mm"
   height="297mm"
   viewBox="0 0 210 297"
   version="1.1"
   id="svg8"
   inkscape:version="0.92pre3 15195"
   sodipodi:docname="logo.svg"
   inkscape:export-filename="C:\xesscorp\BLOGS\Pynqer\docs\images\logo.png"
   inkscape:export-xdpi="117.61115"
   inkscape:export-ydpi="117.61115">
  <defs
     id="defs2" />
  <sodipodi:namedview
     id="base"
     pagecolor="#ffffff"
     bordercolor="#666666"
     borderopacity="1.0"
     inkscape:pageopacity="0.0"
     inkscape:pageshadow="2"
     inkscape:zoom="0.99839683"
     inkscape:cx="376.43311"
     inkscape:cy="420.28167"
     inkscape:document-units="mm"
     inkscape:current-layer="layer1"
     showgrid="false"
     inkscape:window-width="1614"
     inkscape:window-height="1431"
     inkscape:window-x="1689"
     inkscape:window-y="322"
     inkscape:window-maximized="0" />
  <metadata
     id="metadata5">
    <rdf:RDF>
      <cc:Work
         rdf:about="">
        <dc:format>image/svg+xml</dc:format>
        <dc:type
           rdf:resource="http://purl.org/dc/dcmitype/StillImage" />
        <dc:title />
      </cc:Work>
    </rdf:RDF>
  </metadata>
  <g
     inkscape:label="Layer 1"
     inkscape:groupmode="layer"
     id="layer1">
    <path
       id="path3708"
       style="fill:#ff5599;stroke-width:1"
       d="m 126.27019,151.05172 c -0.0806,-0.0301 -0.49747,-0.37369 -1.10073,-0.90724 -0.18738,-0.16574 -0.64683,-0.56933 -1.02099,-0.89689 -1.54313,-1.35092 -1.52377,-1.30607 -0.89065,-2.06318 0.5443,-0.6509 1.30202,-1.80445 1.72943,-2.63288 0.39676,-0.76902 0.72848,-1.17752 1.42757,-1.75795 1.46108,-1.21309 3.40385,-2.12154 5.35686,-2.50489 2.55436,-0.5014 4.64697,-0.0524 6.43224,1.38023 0.38967,0.31269 0.47308,0.47542 0.38323,0.74768 -0.0938,0.28414 -0.27261,0.33867 -1.11149,0.33891 -1.43364,4e-4 -2.68815,0.35731 -3.65766,1.04058 -0.26741,0.18845 -1.0064,0.96458 -1.1174,1.17353 l -0.0953,0.17941 0.65883,1.32281 c 0.51618,1.03638 0.65221,1.35321 0.62828,1.46322 -0.0182,0.0838 -0.21639,0.32003 -0.49154,0.58595 -0.73512,0.71045 -2.6255,2.43121 -2.7475,2.50097 -0.17597,0.10063 -0.34026,0.0788 -0.6291,-0.0835 -0.6328,-0.35552 -1.43696,-0.58299 -2.06103,-0.58299 -0.51462,0 -0.71367,0.0804 -1.06084,0.42868 -0.29726,0.29819 -0.41577,0.34833 -0.63221,0.2675 z m -3.12623,3.84114 c -0.12864,-0.0383 -0.51741,-0.35806 -2.60539,-2.14298 -1.06045,-0.90654 -1.04708,-0.89314 -1.08319,-1.08559 -0.0421,-0.22428 8.2e-4,-0.29165 0.68081,-1.06952 1.09635,-1.25414 1.39758,-1.56492 1.54911,-1.5982 0.2026,-0.0445 0.45166,0.0731 0.73677,0.34795 0.13018,0.12548 0.41322,0.3813 0.62899,0.56849 0.21576,0.18719 0.61745,0.54099 0.89265,0.78623 0.2752,0.24524 0.68683,0.611 0.91474,0.8128 0.22791,0.2018 0.4562,0.40758 0.5073,0.4573 0.11554,0.1124 0.16935,0.31538 0.12765,0.48153 -0.0327,0.13046 -1.75014,2.26401 -1.9086,2.37108 -0.13825,0.0934 -0.2856,0.11712 -0.44084,0.0709 z m 23.44169,13.86425 c -0.37857,-0.12339 -0.53435,-0.26791 -2.15457,-1.99882 -0.93388,-0.99769 -2.26187,-2.41675 -2.9511,-3.15348 -0.68922,-0.73673 -1.42042,-1.5172 -1.62487,-1.73437 -0.20446,-0.21717 -0.66825,-0.7125 -1.03064,-1.10072 -0.99903,-1.07024 -4.41057,-4.71631 -4.55644,-4.86966 -0.10465,-0.11003 -2.0347,-2.17815 -2.49774,-2.67641 -0.45587,-0.49057 -0.54235,-0.61667 -0.54235,-0.79083 0,-0.22727 0.0409,-0.26713 2.22766,-2.17089 0.17297,-0.15059 0.51498,-0.44859 0.76002,-0.66222 0.65292,-0.56923 0.73034,-0.62171 0.91713,-0.62171 0.2181,0 0.34773,0.10529 1.39306,1.1315 1.61068,1.58123 1.97539,1.93773 2.88429,2.81934 0.50155,0.4865 1.37212,1.33563 1.9346,1.88696 1.16861,1.14544 1.97608,1.925 3.5357,3.41352 1.28633,1.22768 1.11867,1.06712 2.57486,2.46595 3.57219,3.43149 3.42036,3.27868 3.50522,3.52774 0.15574,0.45707 0.0685,0.98207 -0.28428,1.71137 -0.34035,0.70353 -0.99557,1.472 -1.731,2.03019 -0.384,0.29145 -1.15949,0.68065 -1.53101,0.76837 -0.24846,0.0587 -0.68375,0.0714 -0.82854,0.0242 z"
       inkscape:connector-curvature="0" />
    <text
       xml:space="preserve"
       style="color:#000000;font-style:normal;font-variant:normal;font-weight:normal;font-stretch:condensed;font-size:3.36601305px;line-height:60.00000238%;font-family:'Arial Narrow';-inkscape-font-specification:'Arial Narrow Condensed';font-variant-ligatures:normal;font-variant-position:normal;font-variant-caps:normal;font-variant-numeric:normal;font-variant-alternates:normal;font-feature-settings:normal;text-indent:0;text-align:center;text-decoration:none;text-decoration-line:none;text-decoration-style:solid;text-decoration-color:#000000;letter-spacing:0;word-spacing:0;text-transform:none;writing-mode:lr-tb;direction:ltr;text-orientation:mixed;dominant-baseline:auto;baseline-shift:baseline;text-anchor:middle;white-space:normal;shape-padding:0;clip-rule:nonzero;display:inline;overflow:visible;visibility:visible;opacity:1;isolation:auto;mix-blend-mode:normal;color-interpolation:sRGB;color-interpolation-filters:linearRGB;solid-color:#000000;solid-opacity:1;vector-effect:none;fill:#ff5599;fill-opacity:1;fill-rule:nonzero;stroke:none;stroke-width:0.26458335;stroke-linecap:square;stroke-linejoin:miter;stroke-miterlimit:4;stroke-dasharray:1.05833335, 0.52916665;stroke-dashoffset:0;stroke-opacity:1;marker:none;marker-start:none;marker-mid:none;marker-end:none;color-rendering:auto;image-rendering:auto;shape-rendering:auto;text-rendering:auto;enable-background:accumulate"
       x="103.22241"
       y="164.13663"
       id="text3721"><tspan
         sodipodi:role="line"
         id="tspan3719"
         x="103.22241"
         y="164.13663"
         style="font-style:normal;font-variant:normal;font-weight:normal;font-stretch:normal;font-size:48.4705925px;font-family:Raleway;-inkscape-font-specification:Raleway;stroke-width:0.26458335">PYNOer</tspan></text>
  </g>
</svg>
